<?xml version="1.0" encoding="UTF-8"?>
<svg xmlns="http://www.w3.org/2000/svg" viewBox="0 0 759.44 75.49">
  <defs>
    <style>
      .cls-1 {
        fill: #231f20;
      }
    </style>
  </defs>
  <g id="I">
    <path class="cls-1" d="M0,75.16c.3-11.19.3-21.59.3-37.48S.3,11.3,0,.2h31.98c-.3,10.99-.3,21.39-.3,37.38s.1,26.29.3,37.58H0Z"/>
  </g>
  <g id="T">
    <path class="cls-1" d="M118.82.2c-.2,3-.2,7.7-.2,11.89s0,9.09.2,12.39c-8.4-.2-16.69-.2-24.39-.3,0,23.69.1,45.67.4,51.07-4.39-.3-11.59-.3-16.69-.3s-12.09,0-16.79.3c.3-5.3.5-27.28.6-51.07-7.69.1-15.99.1-24.49.3.1-3.3.1-8.29.1-12.39s0-8.8-.1-11.89h81.35Z"/>
  </g>
  <g id="The_Pinch">
    <rect class="cls-1" x="134.83" y=".15" width="433.32" height="75.34"/>
  </g>
  <g id="L">
    <path class="cls-1" d="M617.01,0c-.31,5.63-.41,21.29-.51,37.97v13.16c9.64,0,22.7,0,33.95-.3-.1,4.02-.2,8.14-.2,12.25s.1,8.14.2,12.26h-66.3c.1-6.53.4-21.59.4-37.67,0-16.98-.1-30.44-.4-37.67h32.85Z"/>
  </g>
  <g id="A">
    <path class="cls-1" d="M722.78,75.34c-.41-2.71-1.51-7.74-3.21-13.86h-31.94c-1.71,5.93-3.01,10.85-3.51,13.86h-33.65c8.54-19.19,24.81-64.19,28.33-75.34h51.53c3.72,11.25,20.19,55.95,29.13,75.34h-36.66ZM714.74,44.9c-2.11-6.83-4.32-13.76-6.53-19.89-2.01-4.92-3.41-9.44-4.52-12.96-1.11,3.51-2.61,7.94-4.52,13.16-2,6.03-4.32,12.86-6.43,19.59,4.02.1,7.84.1,10.85.1h11.15Z"/>
  </g>
</svg>